<?xml version="1.0" standalone="no"?>
<!DOCTYPE svg PUBLIC "-//W3C//DTD SVG 20010904//EN"
 "http://www.w3.org/TR/2001/REC-SVG-20010904/DTD/svg10.dtd">
<svg version="1.0" xmlns="http://www.w3.org/2000/svg"
 width="4167.000000pt" height="4167.000000pt" viewBox="0 0 4167.000000 4167.000000"
 preserveAspectRatio="xMidYMid meet">

<g transform="translate(0.000000,4167.000000) scale(0.100000,-0.100000)"
fill="#000000" stroke="none">
<path d="M21305 39573 c-102 -21 -103 -22 -109 -77 -3 -28 -10 -186 -16 -351
-12 -352 -17 -405 -34 -405 -30 0 -48 50 -121 330 -89 345 -115 425 -150 459
-24 25 -31 26 -140 26 -63 0 -118 -4 -124 -10 -5 -6 -14 -319 -21 -790 -15
-1068 -16 -1255 -7 -1289 l8 -29 132 8 c73 4 133 8 133 8 4 5 27 945 25 1010
-3 105 6 159 27 155 9 -2 20 -17 24 -33 54 -212 182 -636 215 -712 10 -24 13
-77 11 -220 -1 -103 1 -194 5 -200 6 -9 45 -13 137 -13 l129 0 5 43 c11 88 26
747 32 1388 l6 665 -38 16 c-44 19 -99 28 -129 21z"/>
<path d="M22505 39437 c-7 -33 -285 -2062 -285 -2082 0 -16 7 -17 60 -11 50 6
68 3 107 -15 37 -17 69 -23 138 -24 61 -2 100 -8 120 -19 22 -12 57 -16 137
-16 116 0 133 7 144 58 3 15 11 43 17 62 14 42 10 121 -6 136 -7 6 -79 21
-162 33 -146 21 -151 22 -184 56 l-35 34 13 53 c7 29 12 74 11 100 -1 52 17
167 29 183 4 6 9 48 10 95 4 172 40 211 146 160 28 -13 62 -19 112 -20 84 0
118 12 132 49 9 23 31 152 31 180 0 17 -105 50 -197 62 -116 15 -136 21 -149
48 -11 22 -1 115 16 136 4 6 10 57 14 115 4 57 12 110 18 117 6 7 12 52 14 98
2 47 6 90 9 95 10 17 113 11 148 -7 24 -13 54 -17 116 -16 99 2 135 15 149 51
11 27 32 145 32 175 0 31 -158 66 -462 102 -117 14 -219 27 -225 30 -7 2 -15
-6 -18 -18z"/>
<path d="M18175 39305 c-121 -24 -254 -49 -295 -56 -122 -19 -151 -65 -115
-184 9 -27 31 -135 50 -240 70 -385 223 -1113 244 -1160 5 -11 14 -58 21 -105
6 -47 15 -89 18 -95 3 -5 7 -16 7 -25 6 -56 18 -127 25 -135 4 -5 11 -38 15
-72 l7 -63 96 0 c69 1 103 5 116 15 12 9 43 15 75 15 34 1 72 8 96 20 24 11
62 20 95 20 30 0 66 7 80 15 14 8 46 14 72 15 62 0 75 21 60 94 -6 28 -13 72
-17 98 -11 85 -37 90 -250 43 -91 -20 -169 -34 -172 -31 -5 5 -123 601 -123
622 0 7 9 22 19 35 18 22 26 24 93 21 56 -2 84 2 118 17 25 11 57 22 72 25 36
8 42 34 24 97 -9 29 -16 72 -16 95 0 27 -6 46 -17 55 -21 18 -120 16 -199 -5
-119 -31 -184 -13 -184 50 0 14 -17 107 -37 207 -21 106 -37 214 -37 257 l-1
75 59 3 c32 2 68 9 80 16 11 8 53 16 91 19 91 8 134 23 141 51 3 13 -2 50 -10
83 -9 34 -16 73 -16 88 0 39 -18 65 -43 64 -12 -1 -121 -21 -242 -44z"/>
<path d="M24107 39163 c-14 -48 -34 -180 -127 -848 -55 -396 -116 -830 -135
-964 -40 -283 -41 -280 44 -323 92 -47 182 -33 234 35 33 44 61 101 181 369
57 128 128 283 158 343 30 61 58 124 62 140 8 32 33 65 49 65 12 0 9 -30 -68
-550 -74 -506 -74 -498 -10 -560 33 -32 41 -35 108 -38 108 -5 130 10 191 134
81 162 816 1757 816 1770 0 16 -35 32 -120 55 -146 40 -177 35 -201 -38 -6
-21 -32 -81 -56 -133 -25 -52 -58 -133 -75 -180 -17 -47 -64 -156 -105 -244
-41 -87 -88 -197 -105 -245 -33 -96 -71 -177 -95 -203 -35 -39 -80 -12 -64 38
5 16 15 76 21 133 6 57 22 155 35 218 13 63 22 120 19 127 -2 6 2 28 10 47 8
20 17 70 20 113 3 43 9 83 13 89 4 7 9 21 10 32 10 78 24 172 36 240 22 124 8
175 -50 175 -13 0 -40 9 -60 20 -45 24 -55 24 -92 6 -32 -17 -78 -100 -111
-201 -13 -38 -41 -108 -63 -155 -130 -281 -337 -772 -337 -800 0 -10 -13 -43
-29 -74 -16 -30 -31 -65 -33 -78 -2 -13 -11 -24 -20 -26 -21 -4 -25 36 -7 69
6 12 20 71 31 132 11 62 24 132 29 157 4 25 8 65 9 90 0 25 7 64 15 87 8 23
16 73 18 110 2 38 7 75 11 82 5 7 15 56 23 109 8 54 20 140 28 192 8 52 19
129 25 170 6 41 17 87 25 102 19 40 4 147 -25 170 -18 15 -90 35 -192 53 -30
6 -37 4 -41 -12z m723 -1491 c0 -4 -9 -32 -20 -61 -29 -79 -60 -92 -60 -25 0
51 25 94 55 94 14 0 25 -3 25 -8z"/>
<path d="M16570 38919 c-86 -33 -104 -51 -95 -94 3 -16 60 -202 127 -413 102
-320 120 -385 108 -392 -26 -17 -180 -70 -220 -76 -61 -10 -78 15 -140 206
-85 268 -191 564 -208 583 -21 24 -45 22 -144 -12 -131 -44 -131 -45 -125 -99
2 -26 125 -398 272 -827 147 -429 291 -852 320 -939 33 -98 60 -163 70 -169
29 -16 105 -1 188 37 70 32 77 38 77 64 0 16 -43 154 -95 308 -166 487 -178
557 -103 599 20 11 71 29 114 40 l77 19 23 -27 c12 -15 34 -66 49 -114 34
-115 214 -639 233 -678 19 -38 29 -45 72 -45 31 0 226 53 238 65 6 6 -635
1907 -660 1958 -17 34 -22 37 -61 36 -23 0 -76 -13 -117 -30z"/>
<path d="M14600 38130 c-179 -88 -333 -169 -344 -180 -20 -19 -20 -20 0 -40
10 -12 37 -58 59 -103 49 -100 61 -103 158 -52 38 19 76 35 85 35 37 0 80 -38
97 -87 42 -114 105 -245 279 -576 189 -362 289 -568 358 -741 36 -91 68 -146
117 -203 23 -28 38 -29 64 -5 10 9 58 37 105 62 48 25 88 52 90 61 2 9 -175
382 -393 829 -367 754 -394 814 -378 827 34 26 89 51 128 58 49 9 75 31 75 61
0 35 -33 115 -69 167 -51 74 -54 73 -431 -113z"/>
<path d="M27625 37751 c-116 -29 -197 -128 -407 -501 -201 -356 -420 -734
-448 -775 -15 -22 -55 -98 -89 -169 -53 -113 -61 -136 -61 -188 0 -144 116
-254 443 -423 177 -92 209 -100 251 -62 14 12 67 96 117 187 50 91 149 267
220 391 129 225 147 272 117 297 -7 5 -80 49 -161 96 -180 106 -201 109 -229
33 -10 -27 -29 -63 -42 -80 -43 -57 -36 -109 19 -151 19 -15 35 -33 35 -40 0
-7 -20 -43 -45 -80 -25 -37 -67 -111 -95 -165 -28 -54 -60 -107 -73 -119 l-23
-22 -76 45 c-41 24 -88 59 -103 76 -35 42 -30 78 23 168 404 690 505 865 560
969 64 119 102 165 170 201 34 18 54 7 116 -66 76 -91 77 -122 6 -219 -31 -42
-50 -79 -50 -96 0 -34 60 -87 147 -130 96 -47 102 -42 208 160 l87 166 -4 67
c-4 48 -13 80 -31 111 -56 96 -205 205 -378 277 -102 42 -157 54 -204 42z"/>
<path d="M29110 36778 c-22 -24 -234 -299 -472 -613 -238 -313 -501 -660 -585
-770 -143 -187 -164 -223 -145 -251 8 -12 372 -293 442 -342 72 -49 112 -47
169 10 49 50 83 115 75 145 -4 13 -66 70 -145 132 -76 61 -139 118 -139 126 0
9 58 91 128 183 71 92 143 188 160 213 60 88 111 116 165 88 12 -7 52 -40 88
-75 63 -60 101 -84 135 -84 20 0 88 64 124 117 51 78 47 84 -100 202 -71 57
-130 106 -130 107 0 4 211 287 293 394 65 84 107 79 217 -25 114 -107 156
-125 209 -89 28 20 143 164 139 174 -4 11 -429 335 -487 372 -64 40 -93 37
-141 -14z"/>
<path d="M20205 36763 c-16 -3 -36 -10 -44 -16 -10 -8 -80 -12 -225 -12 -181
-1 -216 -3 -243 -18 -26 -14 -59 -17 -160 -18 -90 0 -134 -4 -148 -13 -12 -8
-70 -19 -129 -25 -60 -7 -222 -32 -360 -56 -811 -142 -1460 -315 -2141 -570
-1052 -394 -1939 -879 -2810 -1534 -171 -129 -293 -231 -450 -376 -66 -61
-145 -128 -176 -148 -90 -60 -196 -154 -333 -300 -70 -74 -162 -164 -203 -199
-40 -35 -101 -98 -135 -140 -33 -43 -64 -78 -68 -78 -19 0 -174 -159 -277
-283 -64 -78 -144 -171 -176 -207 -324 -356 -955 -1271 -1269 -1840 -134 -243
-458 -890 -526 -1050 -271 -638 -530 -1468 -656 -2100 -83 -413 -174 -1118
-206 -1585 -26 -374 -30 -1129 -30 -5550 0 -4280 1 -4650 17 -4764 20 -148 12
-219 -37 -317 -40 -81 -107 -142 -252 -229 -160 -96 -315 -199 -462 -307 -69
-51 -153 -110 -186 -130 -90 -56 -130 -141 -79 -169 15 -7 159 -11 473 -12
462 -2 483 -4 508 -41 12 -18 10 -394 -3 -401 -5 -4 -14 -18 -19 -31 -7 -17
-17 -24 -37 -24 -16 -1 -143 -5 -283 -10 -172 -6 -406 -6 -718 2 -507 13 -606
9 -824 -37 -260 -53 -415 -123 -843 -380 -143 -86 -319 -185 -392 -221 -81
-40 -134 -72 -138 -83 -7 -24 11 -64 36 -80 16 -9 362 -12 1625 -11 882 0
1605 -1 1606 -2 2 -2 5 -1231 8 -2733 4 -2125 8 -2735 17 -2751 7 -12 20 -24
29 -28 9 -3 5075 -6 11258 -6 l11241 0 18 21 c9 12 17 33 17 47 0 14 6 33 13
41 11 12 12 36 6 101 -12 141 -11 5128 2 5136 6 3 8 17 5 30 -8 31 11 104 27
104 7 0 770 0 1697 0 1858 0 1730 -5 1730 60 0 34 -17 53 -74 82 -22 11 -196
107 -386 213 -810 451 -845 469 -925 484 -40 7 -374 11 -1036 11 -1146 0
-1022 -16 -1028 132 -6 162 9 375 28 399 16 20 24 20 583 21 589 0 616 2 586
40 -12 14 -405 278 -874 585 -94 62 -189 132 -212 157 -77 84 -117 189 -129
346 -5 52 -6 1985 -2 4295 4 3634 -1 5723 -15 6011 -2 43 -9 122 -15 174 -6
52 -18 174 -26 270 -93 1039 -398 2228 -835 3250 -425 993 -1027 1979 -1702
2788 -360 430 -877 952 -1323 1336 -361 310 -758 614 -1095 838 -206 138 -319
207 -755 463 -172 101 -322 175 -362 178 -25 2 -28 -2 -39 -48 -35 -147 -9
-201 131 -276 138 -74 675 -401 860 -524 313 -209 732 -521 1015 -758 416
-347 960 -884 1321 -1302 280 -325 531 -665 836 -1135 255 -393 336 -532 525
-905 285 -559 323 -643 452 -985 30 -80 72 -190 94 -245 40 -100 200 -591 266
-820 87 -300 176 -679 201 -859 8 -59 22 -120 30 -136 8 -16 15 -40 15 -53 0
-13 7 -37 15 -54 8 -16 16 -64 18 -106 2 -42 9 -82 15 -89 6 -7 13 -58 17
-113 4 -55 14 -116 22 -135 11 -23 17 -70 18 -140 1 -61 8 -118 15 -135 9 -19
15 -81 16 -170 2 -77 8 -156 14 -175 5 -19 16 -116 22 -215 13 -192 13 -369
13 -4845 0 -1444 1 -3243 2 -3998 3 -1183 1 -1377 -11 -1407 -8 -19 -21 -35
-28 -35 -25 1 -95 45 -255 159 -87 62 -202 138 -254 168 l-94 55 -265 -6
c-146 -4 -292 -11 -325 -16 -33 -6 -242 -12 -465 -15 -223 -2 -468 -7 -545
-10 -76 -3 -387 0 -690 6 -447 8 -557 8 -589 -3 -34 -12 -45 -24 -96 -113
-246 -431 -416 -733 -422 -748 -11 -26 1 -45 35 -56 18 -5 281 -12 589 -16
594 -7 646 -11 695 -56 58 -55 59 -67 37 -347 l-7 -82 1320 0 c1266 0 1321 -1
1336 -18 15 -16 17 -49 17 -258 0 -173 -3 -243 -12 -252 -9 -9 -333 -12 -1396
-12 -1243 0 -1387 -2 -1417 -16 -41 -19 -57 -43 -78 -112 -28 -98 -85 -154
-192 -189 -66 -22 -646 -26 -2450 -15 l-1340 8 -49 23 c-61 31 -102 86 -116
159 -6 31 -13 69 -16 85 -3 15 -12 34 -21 42 -13 13 -880 15 -7483 15 -7339 0
-7468 0 -7491 19 -24 19 -24 20 -24 238 0 234 4 256 51 273 16 6 2808 10 7546
10 6955 0 7523 1 7555 16 46 22 85 91 128 230 28 89 44 121 75 157 62 70 88
76 405 81 267 5 369 16 398 45 27 27 -66 344 -167 571 -73 161 -231 458 -276
518 -38 50 -121 106 -180 122 -51 13 -925 184 -1125 220 -524 92 -914 101
-1325 29 -868 -152 -1476 -643 -1816 -1469 -56 -136 -85 -180 -120 -180 -33 0
-61 35 -100 124 -284 654 -773 1076 -1483 1281 -261 75 -509 107 -831 107
-287 0 -364 -7 -1000 -97 -1187 -167 -1949 -236 -3080 -280 -1500 -57 -2525
-67 -3452 -34 -363 12 -413 9 -530 -41 -37 -15 -112 -59 -165 -98 -318 -225
-465 -322 -494 -322 l-29 0 -2 4543 c-4 5549 -4 5446 11 5692 64 1098 228
1953 568 2965 450 1339 1110 2542 1957 3565 386 465 921 1004 1386 1395 835
701 1793 1303 2728 1714 1094 481 2251 770 3487 870 361 30 672 39 1110 33
422 -6 534 -11 885 -43 1069 -95 2122 -357 3140 -781 179 -75 205 -81 247 -59
49 25 89 125 65 163 -15 23 -281 143 -492 222 -840 311 -1623 512 -2465 631
-121 17 -229 37 -241 45 -16 10 -58 14 -153 14 -106 1 -136 4 -157 18 -22 14
-58 17 -253 18 -190 1 -232 3 -263 18 -34 15 -84 17 -520 16 -266 -1 -496 -4
-513 -6z m755 -22800 c72 -75 177 -219 259 -356 65 -108 107 -152 180 -186
l56 -26 5140 -5 c4039 -4 5145 -8 5161 -17 12 -7 27 -27 33 -44 8 -23 11 -744
11 -2576 0 -2751 3 -2593 -52 -2625 -19 -11 -1890 -13 -11021 -16 l-10998 -2
-24 25 -25 24 0 2624 c0 2189 2 2626 13 2636 10 8 1421 12 5303 13 l5289 3 50
27 c65 34 100 73 168 184 101 163 214 307 281 356 25 18 51 28 75 28 30 0 44
-9 101 -67z"/>
<path d="M17976 12700 c-455 -52 -895 -250 -1284 -576 -457 -383 -712 -969
-663 -1526 32 -357 149 -656 373 -950 80 -106 289 -321 393 -405 249 -201 518
-338 809 -413 200 -52 309 -64 556 -64 380 -1 555 34 1020 203 63 23 103 31
152 31 105 0 159 -25 255 -120 51 -50 89 -80 102 -80 35 0 77 27 89 57 7 18
13 207 18 518 7 543 7 548 -55 579 -58 30 -136 16 -167 -31 -8 -13 -35 -75
-60 -136 -233 -581 -658 -867 -1289 -867 -213 0 -362 24 -505 83 -233 95 -403
254 -516 482 -133 271 -159 503 -151 1385 5 625 13 708 89 955 88 291 260 496
506 606 225 101 543 144 783 105 402 -65 723 -249 895 -511 59 -91 89 -154
129 -275 56 -170 86 -205 173 -198 41 4 60 11 80 32 l27 26 0 486 0 486 -33
29 c-26 23 -42 29 -78 29 -58 0 -90 -17 -174 -95 -116 -105 -206 -118 -334
-47 -103 58 -421 154 -616 187 -113 19 -413 27 -524 15z"/>
<path d="M13586 12589 c-31 -25 -34 -59 -5 -85 19 -17 44 -19 293 -24 209 -4
276 -8 292 -19 52 -34 49 66 52 -1711 2 -1165 0 -1666 -8 -1692 -6 -21 -21
-43 -33 -50 -15 -8 -112 -14 -295 -19 -301 -8 -322 -12 -322 -67 0 -39 12 -52
56 -62 22 -6 489 -10 1064 -10 805 0 1030 3 1050 13 38 19 40 95 3 113 -10 5
-137 11 -283 14 -305 6 -309 7 -329 84 -16 66 -15 3277 2 3325 7 19 25 44 40
55 27 20 44 21 296 26 294 5 301 7 301 65 0 70 80 65 -1092 65 -1052 0 -1055
0 -1082 -21z"/>
<path d="M20257 12592 c-19 -21 -22 -73 -7 -102 18 -33 76 -40 325 -40 219 0
243 -2 272 -19 25 -16 33 -30 42 -71 15 -69 15 -3185 0 -3250 -11 -50 -32 -77
-69 -93 -15 -6 -134 -11 -284 -12 -256 -2 -260 -3 -278 -25 -18 -22 -24 -76
-10 -96 22 -33 43 -34 1146 -34 l1095 0 15 22 c22 31 20 81 -3 109 l-19 24
-284 3 c-155 1 -297 4 -314 7 -17 3 -44 19 -60 36 l-29 30 -3 684 c-3 757 -4
737 60 772 30 17 78 18 618 24 647 7 718 13 968 79 332 89 630 257 768 433
118 151 174 318 174 522 0 245 -85 452 -251 611 -73 69 -114 97 -239 159 -268
135 -546 207 -896 234 -90 7 -600 11 -1431 11 -1237 0 -1291 -1 -1306 -18z
m2193 -122 c371 -16 466 -32 599 -97 151 -73 260 -221 310 -418 75 -301 43
-690 -77 -920 -54 -103 -155 -201 -263 -253 -166 -82 -277 -94 -789 -90 -333
3 -368 5 -393 21 -16 10 -32 29 -37 43 -6 15 -10 340 -10 822 0 891 -3 848 70
884 42 21 228 24 590 8z"/>
<path d="M24267 12599 c-45 -26 -39 -106 9 -128 16 -7 109 -14 233 -17 253 -7
304 -15 347 -58 62 -62 59 27 59 -1713 l0 -1592 -21 -28 c-40 -54 -60 -58
-294 -59 -118 0 -239 -1 -267 -2 -67 -2 -93 -25 -93 -82 0 -76 -83 -71 1117
-68 1037 3 1072 4 1092 22 29 26 28 76 -2 104 -21 20 -34 22 -158 23 -74 0
-198 4 -276 7 -167 9 -185 18 -202 106 -7 32 -9 320 -8 781 3 674 4 733 21
763 26 51 72 66 176 58 352 -28 517 -83 650 -216 98 -98 147 -205 185 -400 21
-107 40 -130 105 -130 37 0 51 5 71 26 l24 26 0 733 0 733 -24 26 c-20 21 -34
26 -72 26 -64 0 -79 -22 -113 -156 -37 -149 -85 -242 -166 -323 -140 -141
-332 -201 -648 -201 -148 0 -154 1 -177 24 -14 14 -26 41 -30 67 -3 24 -5 355
-3 734 3 646 4 693 21 718 10 16 30 32 44 38 37 14 907 14 1053 0 309 -30 493
-104 641 -258 122 -126 189 -250 281 -515 65 -189 83 -213 161 -213 45 0 60 5
82 25 27 25 27 25 21 130 -4 58 -11 146 -16 195 -5 50 -12 229 -16 398 -8 343
-11 358 -74 389 -33 17 -143 18 -1875 18 -1267 -1 -1846 -4 -1858 -11z"/>
<path d="M12316 36689 c-129 -44 -332 -206 -380 -302 -26 -52 -29 -70 -30
-150 -1 -109 3 -117 113 -262 295 -390 869 -1126 899 -1153 55 -50 109 -74
178 -80 112 -9 129 1 464 260 240 187 235 161 71 373 -46 60 -104 132 -128
159 -24 26 -89 110 -145 185 -97 130 -222 271 -240 271 -4 0 -40 -27 -79 -60
-40 -33 -111 -87 -159 -120 -48 -33 -91 -67 -94 -76 -7 -18 7 -44 70 -125 63
-82 80 -94 107 -81 12 7 34 21 49 33 37 31 71 19 111 -38 18 -25 69 -93 115
-150 46 -58 92 -123 102 -144 l20 -39 -41 -21 c-23 -11 -64 -39 -91 -60 -28
-21 -59 -39 -70 -39 -39 0 -145 122 -477 545 -434 555 -451 579 -451 640 0 63
69 133 140 142 38 5 43 3 88 -43 26 -27 70 -75 97 -107 l50 -57 43 23 c58 31
146 101 171 136 l21 28 -49 69 c-63 90 -197 219 -252 244 -58 26 -146 25 -223
-1z"/>
<path d="M25803 36438 c-34 -37 -273 -479 -428 -793 -233 -470 -514 -1118
-690 -1590 -405 -1085 -713 -2294 -884 -3475 -56 -387 -88 -707 -141 -1410
-40 -520 -47 -784 -29 -1000 22 -259 18 -348 -20 -450 -18 -49 -55 -120 -89
-168 -31 -45 -105 -151 -164 -235 -489 -699 -857 -1469 -1093 -2287 -53 -185
-61 -204 -102 -241 -37 -35 -1310 -620 -2268 -1043 -627 -276 -803 -370 -1006
-534 -176 -142 -352 -360 -451 -556 -88 -175 -106 -240 -185 -651 -79 -417
-88 -504 -59 -615 8 -30 11 -63 6 -74 -6 -18 -10 -15 -30 28 -26 54 -81 99
-144 118 -67 20 -354 16 -451 -6 -166 -38 -210 -78 -210 -187 0 -86 13 -102
74 -96 25 3 80 15 121 28 104 33 330 34 502 1 64 -12 120 -22 123 -22 3 0 5
25 5 55 0 44 3 53 15 49 8 -4 18 -18 21 -33 15 -68 45 -144 144 -366 59 -132
117 -269 128 -305 95 -293 75 -515 -69 -775 -222 -400 -329 -478 -686 -500
l-112 -7 34 80 c49 117 93 260 111 365 17 95 24 316 11 377 l-7 35 238 2 c139
2 248 7 263 14 52 21 64 94 23 136 l-25 25 -172 -6 c-95 -4 -185 -3 -201 2
-16 4 -39 20 -49 35 -18 24 -21 50 -29 293 -8 289 -12 307 -64 317 -49 9 -82
-10 -95 -56 -18 -62 -14 -272 5 -332 14 -45 14 -51 -1 -67 -18 -20 -33 -23
-33 -7 0 22 -133 325 -211 481 l-79 158 -1 197 c-1 130 3 210 11 233 7 19 16
103 20 185 6 90 21 216 40 315 17 91 35 214 40 273 6 74 16 122 30 151 11 23
20 62 20 87 0 112 47 409 96 604 78 308 220 645 396 940 64 107 112 179 579
875 299 446 566 876 884 1425 317 546 413 935 321 1299 -42 162 -64 189 -164
194 -75 3 -122 -14 -154 -58 -10 -14 -51 -124 -92 -245 -88 -259 -162 -437
-291 -694 -216 -433 -445 -793 -920 -1446 -99 -137 -187 -263 -193 -280 -7
-16 -21 -41 -32 -55 l-20 -25 0 39 c0 22 6 47 14 55 13 14 15 113 16 636 2
555 0 626 -15 675 -29 96 -76 171 -155 250 -122 123 -261 180 -435 180 -216 0
-331 -96 -385 -322 -19 -79 -20 -118 -19 -743 0 -484 3 -669 12 -695 16 -45
60 -69 144 -80 38 -5 125 -16 194 -24 69 -9 173 -25 230 -37 73 -15 142 -21
231 -21 143 -1 146 -3 74 -66 -47 -41 -93 -52 -185 -46 -99 7 -123 -7 -187
-116 -27 -45 -72 -104 -101 -130 -40 -37 -58 -63 -82 -124 -55 -138 -131 -253
-282 -432 -241 -285 -343 -509 -443 -975 -67 -315 -108 -560 -111 -670 -3
-107 -10 -149 -25 -149 -13 0 -20 41 -20 132 0 74 -3 87 -17 92 -10 3 -117 14
-238 26 -234 22 -398 42 -534 66 -106 18 -217 18 -306 -1 -110 -23 -215 -81
-365 -202 -74 -60 -547 -439 -1050 -842 -820 -656 -951 -767 -929 -784 118
-97 507 -388 538 -404 53 -28 74 -28 126 -4 44 20 1007 798 1540 1244 120 100
284 166 416 167 25 0 126 -14 225 -31 123 -21 229 -32 340 -36 l161 -6 22 47
c18 35 26 81 37 194 7 81 14 151 14 157 0 5 5 4 11 -2 7 -7 12 -67 13 -165 1
-126 -2 -160 -17 -192 -15 -34 -17 -77 -17 -385 0 -365 -10 -504 -51 -704 -27
-135 -98 -348 -158 -472 -56 -119 -252 -463 -571 -1005 -128 -217 -244 -416
-257 -443 -24 -47 -43 -54 -43 -16 0 42 -49 21 -168 -73 -341 -268 -675 -561
-680 -595 -4 -26 11 -30 164 -39 116 -6 124 -6 176 18 45 21 69 43 137 126 45
55 93 107 106 116 24 15 25 15 25 -2 0 -21 -44 -86 -80 -117 -12 -11 -43 -49
-68 -85 -25 -36 -63 -83 -86 -106 -23 -22 -54 -57 -69 -77 l-28 -37 -117 0
c-65 0 -171 -7 -237 -15 -166 -20 -720 -30 -991 -16 -244 11 -315 6 -401 -34
-28 -13 -199 -128 -380 -257 -180 -129 -492 -351 -693 -493 -201 -142 -375
-267 -387 -278 -33 -30 -31 -74 5 -89 34 -16 1364 -15 1772 0 282 11 365 23
451 68 16 8 99 84 183 169 85 85 159 155 166 155 34 0 -78 -137 -282 -343 -38
-39 -36 -72 7 -112 58 -55 120 -79 211 -83 77 -4 88 -1 185 38 100 39 216 105
270 152 14 13 47 56 73 96 42 63 70 92 90 92 16 0 2 -42 -29 -90 -19 -30 -35
-68 -35 -84 l0 -29 158 7 c86 4 180 11 207 16 28 5 136 14 240 20 105 5 298
21 430 35 132 13 371 36 530 50 600 53 1051 95 1085 101 70 13 107 40 141 105
18 33 50 79 70 102 l38 42 -15 -55 c-8 -30 -28 -75 -43 -100 -40 -67 -94 -267
-99 -373 -5 -97 4 -122 35 -95 10 8 36 18 58 21 127 20 288 148 406 326 86
128 118 171 144 193 26 22 28 22 40 -4 8 -18 18 -23 45 -22 19 0 168 6 330 13
444 18 712 -2 1000 -73 509 -127 898 -389 1165 -786 72 -107 179 -323 206
-415 27 -91 49 -115 106 -115 56 0 75 19 103 106 12 38 48 123 80 190 283 587
826 959 1571 1076 125 19 184 22 449 22 314 1 413 -6 763 -49 216 -28 807
-116 928 -139 110 -22 255 -31 263 -18 11 18 -18 63 -126 199 -113 141 -248
297 -468 538 -80 88 -198 219 -261 290 -172 193 -226 238 -364 307 -191 95
-502 152 -840 152 -265 0 -466 -33 -701 -114 -129 -45 -366 -165 -416 -211
-24 -21 -51 -42 -62 -45 -10 -3 -38 -25 -61 -48 -24 -22 -62 -57 -86 -76 -23
-19 -81 -81 -128 -138 -227 -272 -387 -577 -489 -934 -22 -73 -46 -148 -56
-165 -20 -39 -62 -63 -111 -63 -75 0 -96 44 -219 460 -32 110 -75 174 -137
208 -27 15 -49 30 -49 34 0 3 30 9 68 13 37 3 76 10 87 16 11 5 61 20 110 34
170 49 242 116 300 280 22 63 29 105 34 200 l6 120 40 -3 c22 -2 139 -6 261
-9 l220 -5 50 25 c27 13 68 30 92 37 23 7 42 19 42 25 0 7 10 20 21 31 34 30
69 91 79 137 5 23 13 60 19 82 6 22 11 77 11 122 0 81 1 83 26 89 15 4 47 1
73 -5 127 -33 128 -33 191 -17 34 9 73 16 88 16 14 0 80 27 147 59 174 85 261
176 330 342 14 35 33 80 42 99 19 41 34 95 36 129 2 16 -10 33 -36 55 -36 28
-45 31 -111 31 -69 0 -74 -2 -154 -53 -98 -63 -216 -121 -275 -135 -58 -14
-154 -13 -207 3 -61 18 -116 46 -320 168 -429 256 -690 454 -690 524 0 41 24
84 86 150 29 32 56 68 59 80 4 13 15 31 24 42 12 14 16 39 16 107 0 51 -5 93
-11 99 -18 18 -205 33 -266 21 -191 -38 -239 -59 -320 -143 -51 -53 -108 -158
-129 -237 -7 -27 -18 -52 -26 -55 -7 -3 -45 10 -85 29 -114 54 -302 79 -386
51 -26 -8 -72 -23 -102 -32 -94 -28 -191 -85 -255 -149 -128 -128 -186 -308
-164 -508 21 -186 71 -301 182 -416 31 -33 57 -69 57 -80 0 -17 -6 -18 -67
-14 -38 2 -88 11 -112 19 -25 8 -83 14 -130 14 -47 0 -118 5 -158 10 -136 18
-233 -13 -293 -93 l-35 -47 -3 42 c-4 68 -10 84 -36 96 -32 14 -110 22 -786
77 -574 47 -1260 107 -1719 150 -145 14 -286 25 -314 25 -66 0 -110 -22 -125
-63 -26 -72 -172 -223 -172 -178 0 12 133 206 165 241 80 86 609 1034 629
1127 4 17 23 57 43 90 19 32 44 82 55 111 11 29 31 65 45 80 l24 27 -4 -48
c-3 -29 -15 -63 -32 -89 -16 -23 -38 -79 -50 -124 -22 -77 -22 -85 -9 -175 38
-255 130 -457 270 -590 93 -87 148 -121 192 -117 36 3 37 4 43 49 4 25 12 55
19 66 20 31 -11 109 -71 179 -100 117 -170 260 -205 419 -25 114 -26 405 -1
454 10 21 13 38 8 45 -5 6 -12 35 -16 65 -6 42 -15 62 -44 94 -31 34 -36 47
-35 86 0 26 5 55 11 65 10 17 15 12 43 -45 18 -35 43 -95 56 -133 15 -43 66
-135 136 -245 189 -298 223 -394 222 -621 0 -130 -3 -154 -29 -235 -52 -169
-51 -162 -29 -192 12 -16 40 -33 70 -42 30 -10 50 -23 52 -33 3 -16 -6 -18
-83 -18 l-86 0 23 -42 c13 -23 39 -53 58 -66 32 -22 42 -23 113 -18 l78 7 74
-69 c137 -128 254 -163 479 -142 194 17 326 54 491 138 226 114 404 293 520
522 86 172 133 381 142 640 13 368 -68 683 -266 1029 -108 188 -150 381 -59
267 33 -41 65 -49 277 -65 80 -7 232 -23 339 -36 297 -38 326 -34 373 49 29
50 338 720 334 724 -10 11 -221 38 -644 82 -493 52 -517 53 -583 25 -15 -6
-18 -1 -18 33 0 48 99 251 175 358 64 91 166 196 240 249 284 204 1235 667
2360 1150 171 73 330 143 355 154 41 19 100 28 111 17 3 -3 -1 -51 -7 -108 -7
-57 -13 -161 -13 -233 -1 -82 -6 -139 -14 -154 -21 -41 -515 -369 -754 -500
-275 -151 -655 -287 -885 -316 -47 -6 -106 -41 -91 -55 19 -17 315 -140 383
-159 156 -44 314 -37 484 20 91 30 528 243 683 333 49 28 92 46 105 44 20 -3
24 -10 29 -68 4 -36 7 -128 8 -204 1 -176 -10 -206 -103 -268 -73 -49 -142
-113 -162 -150 -8 -15 -14 -51 -14 -79 0 -51 2 -55 54 -105 32 -31 83 -66 127
-87 41 -19 82 -43 91 -54 12 -13 21 -50 28 -113 6 -52 17 -151 26 -219 8 -71
12 -147 8 -177 -5 -44 -1 -65 24 -132 17 -43 41 -132 52 -198 12 -65 27 -149
34 -185 l13 -67 -206 -5 c-249 -6 -323 -22 -489 -102 -141 -69 -225 -146 -274
-251 -27 -58 -33 -83 -36 -159 -7 -154 43 -259 211 -442 257 -281 536 -477
861 -604 240 -95 431 -120 586 -79 129 34 138 35 162 14 11 -11 57 -68 102
-129 193 -258 318 -396 826 -910 659 -667 925 -962 1222 -1355 382 -506 655
-1024 793 -1500 47 -163 86 -200 212 -200 131 0 177 52 233 262 96 365 153
695 192 1113 17 187 17 835 0 1020 -50 532 -163 977 -362 1422 -136 305 -306
582 -560 912 -404 526 -709 1010 -1005 1596 -554 1098 -861 2155 -971 3345
-32 351 -26 1356 8 1398 15 17 50 -15 71 -66 9 -20 90 -215 181 -432 486
-1169 885 -2058 1791 -3995 532 -1138 670 -1463 859 -2028 414 -1234 551
-2445 391 -3434 -51 -311 -71 -394 -275 -1085 l-9 -28 252 1 c139 0 275 -3
302 -6 68 -9 167 9 234 41 98 48 161 125 310 380 658 1123 1093 2069 1320
2874 22 80 70 269 106 420 36 151 75 307 86 345 11 39 22 89 24 113 2 24 9 50
16 58 7 9 11 43 10 88 -1 44 4 91 14 117 8 24 15 69 15 99 0 72 19 221 29 235
5 5 12 130 16 277 3 147 10 291 14 322 7 54 1 258 -19 639 -62 1161 -484 2637
-1185 4152 -158 343 -417 849 -690 1350 -424 777 -542 1015 -762 1529 -524
1229 -831 2268 -1007 3418 -82 529 -125 916 -146 1308 -5 102 -15 235 -22 295
-16 157 -16 932 1 1105 7 74 15 176 17 225 10 237 14 303 25 335 6 19 12 91
13 160 2 89 7 135 19 160 10 23 17 72 19 145 2 69 9 119 18 135 8 15 14 58 15
110 1 57 6 95 17 115 9 17 14 42 11 56 -2 14 0 60 6 103 13 90 76 363 97 419
13 34 12 39 -6 57 -26 26 -62 25 -87 -2z m-8703 -12914 c-11 -88 -28 -188 -37
-224 -18 -74 -51 -155 -59 -147 -10 9 15 291 32 352 16 61 73 189 81 181 2 -2
-5 -75 -17 -162z m4973 -2999 c72 -29 348 -184 380 -213 11 -9 66 -111 124
-225 119 -238 123 -225 -52 -142 -127 59 -186 92 -459 259 -209 127 -286 190
-306 252 -15 46 -10 57 42 83 61 31 175 25 271 -14z m-5343 -79 c0 -7 -7 -19
-15 -26 -12 -10 -15 -9 -15 7 0 11 3 23 7 26 11 12 23 8 23 -7z m3738 -928
c43 -122 101 -183 349 -368 318 -239 546 -387 780 -509 81 -42 148 -81 150
-86 5 -18 -314 -96 -390 -95 -65 0 -74 3 -270 101 -233 117 -476 245 -627 332
-160 92 -435 265 -455 287 -25 27 -31 100 -12 137 35 66 117 118 280 177 52
18 111 45 132 59 21 15 40 25 41 24 1 -1 11 -28 22 -59z m-5193 -815 c-2 -16
-7 -50 -10 -76 -6 -46 -52 -117 -77 -117 -20 0 28 150 63 194 26 33 30 33 24
-1z m445 -48 c0 -27 -79 -115 -102 -115 -8 1 -4 9 10 19 14 12 22 30 22 50 0
33 30 71 55 71 9 0 15 -9 15 -25z m3160 -120 c0 -15 -89 -99 -123 -116 -21
-11 -75 -27 -119 -34 -81 -15 -142 -39 -235 -95 l-52 -31 6 35 c4 29 1 37 -19
50 -23 15 -39 15 -199 1 -357 -32 -1106 -133 -2003 -270 -93 -14 -296 -41
-452 -59 -321 -39 -363 -51 -388 -110 -8 -20 -23 -40 -33 -44 -10 -4 -19 -18
-20 -32 -2 -14 -16 -37 -33 -51 -17 -14 -30 -35 -30 -48 0 -22 -41 -71 -60
-71 -5 0 -10 -11 -10 -25 0 -26 -39 -75 -60 -75 -13 0 -13 4 4 45 8 18 24 38
35 45 12 6 21 20 21 32 0 11 16 35 35 54 19 18 35 42 35 54 0 12 14 35 30 50
17 15 30 33 30 39 0 6 14 25 30 43 17 17 30 35 30 41 0 5 23 48 52 95 l52 87
7 107 c4 69 11 113 20 124 15 18 85 53 107 54 7 0 -14 -53 -53 -127 -35 -71
-66 -139 -67 -153 -3 -21 2 -25 37 -31 22 -5 75 -8 117 -8 97 -1 936 104 1718
214 835 118 992 138 1320 169 85 8 171 22 190 30 34 15 80 21 80 11z m-3700
-55 c0 -22 -42 -70 -61 -70 -17 0 -1 52 23 73 27 22 38 22 38 -3z m4936 -47
c102 -46 233 -121 434 -250 107 -69 197 -127 199 -129 9 -8 -55 -79 -117 -130
-137 -113 -247 -154 -427 -162 -128 -5 -155 0 -365 63 -47 15 -152 37 -235 50
-347 55 -450 79 -492 118 -31 28 -29 45 8 65 18 9 67 43 111 75 84 61 156 103
164 95 7 -8 -182 -185 -206 -193 -11 -3 -20 -10 -20 -14 0 -9 151 -44 485
-111 138 -27 302 -63 365 -79 63 -17 116 -28 118 -26 9 8 -39 72 -90 121 -29
28 -83 72 -119 97 -96 67 -96 77 -3 77 67 0 78 3 101 26 l26 26 -6 154 c-4 85
-3 154 2 154 5 0 35 -12 67 -27z m-5006 -42 c0 -12 -20 -25 -27 -18 -7 7 6 27
18 27 5 0 9 -4 9 -9z m-41 -47 c-6 -7 -15 -11 -21 -8 -5 3 -4 12 3 20 6 7 15
11 21 8 5 -3 4 -12 -3 -20z m4586 -98 c55 -26 150 -116 123 -116 -30 0 -69 20
-134 68 -92 68 -86 94 11 48z m-1490 -216 c6 -10 -75 -117 -131 -174 -15 -14
-38 -26 -51 -26 -24 0 -24 2 18 53 54 66 141 157 151 157 4 0 10 -5 13 -10z
m-3505 -221 c-7 -16 -21 -34 -32 -40 -11 -6 -44 -49 -74 -95 -30 -47 -83 -118
-118 -158 -35 -40 -71 -87 -81 -105 -9 -19 -39 -56 -67 -85 -27 -28 -56 -64
-63 -81 -15 -35 -112 -131 -123 -120 -4 3 0 12 8 19 16 12 29 31 56 81 9 17
33 46 54 66 21 19 47 53 58 75 11 21 30 48 42 59 13 11 46 56 75 100 28 44 71
103 95 130 24 28 65 80 92 117 50 69 80 95 87 77 1 -6 -3 -23 -9 -40z m3948
-4 c12 -31 22 -66 22 -80 l0 -24 -36 24 c-20 14 -43 25 -51 25 -15 0 -47 -31
-93 -88 -27 -33 -70 -52 -70 -31 0 19 183 229 200 229 3 0 15 -25 28 -55z
m-692 -69 c-24 -48 -85 -121 -281 -330 -36 -38 -68 -66 -71 -63 -11 11 47 99
115 172 36 39 109 122 161 183 52 62 97 107 98 102 2 -6 -8 -35 -22 -64z
m1070 -186 c247 -35 377 -64 637 -141 365 -108 380 -112 542 -118 l150 -6 -40
-19 c-35 -16 -56 -18 -170 -12 -150 8 -243 28 -405 86 -202 72 -414 123 -692
164 -129 20 -165 29 -182 45 -26 27 -27 27 160 1z m-681 -36 c-8 -21 -27 -53
-41 -71 -28 -37 -124 -116 -131 -109 -3 2 8 26 23 52 30 51 151 181 160 172 3
-3 -2 -23 -11 -44z m-3330 -91 c-8 -34 -33 -63 -53 -63 -18 0 -8 46 15 73 26
28 46 22 38 -10z m-65 -97 c0 -16 -12 -35 -34 -53 -21 -17 -43 -51 -59 -90
-14 -34 -39 -81 -55 -105 -29 -42 -122 -138 -122 -126 0 35 83 170 151 247 27
30 49 63 49 72 0 19 46 79 61 79 5 0 9 -11 9 -24z"/>
<path d="M29738 35054 c-456 -464 -708 -727 -717 -750 -13 -33 -12 -36 22 -88
39 -58 108 -113 155 -122 27 -6 55 20 457 420 236 234 432 426 436 426 14 0
-19 -92 -41 -115 -11 -12 -72 -122 -135 -245 -146 -283 -236 -419 -376 -565
-139 -145 -140 -150 -38 -258 38 -42 79 -79 89 -82 44 -14 -19 -75 1020 983
l503 513 -73 74 c-85 86 -126 111 -164 101 -16 -4 -123 -100 -268 -241 -133
-129 -249 -235 -259 -235 -16 0 -14 9 15 73 77 167 202 407 248 475 91 134 88
165 -25 265 -75 67 -105 87 -131 87 -8 0 -331 -322 -718 -716z"/>
<path d="M10947 35533 c-73 -56 -176 -148 -175 -158 0 -5 107 -110 239 -233
162 -152 249 -227 272 -233 19 -5 58 -35 97 -75 60 -62 63 -66 35 -60 -16 4
-55 19 -85 35 -404 208 -590 303 -633 322 -68 29 -125 29 -168 -1 -41 -28
-139 -121 -139 -132 0 -18 494 -520 1031 -1049 353 -346 442 -429 463 -429 36
0 206 162 206 196 0 16 -42 62 -152 166 -206 192 -708 696 -708 710 0 18 62 0
108 -32 23 -17 49 -30 57 -30 8 0 20 -12 27 -27 7 -15 24 -33 38 -40 14 -6 94
-49 179 -94 84 -45 197 -99 250 -119 53 -20 105 -42 117 -48 11 -6 71 -64 131
-129 61 -65 125 -126 142 -136 l31 -18 93 93 c52 51 99 102 105 114 10 19 3
28 -71 94 -45 40 -320 305 -612 589 -622 607 -732 712 -765 734 -35 24 -72 21
-113 -10z"/>
<path d="M31736 34355 c-15 -8 -53 -38 -84 -66 -30 -28 -121 -101 -201 -163
-563 -433 -830 -639 -991 -766 -102 -80 -214 -168 -250 -195 -72 -54 -80 -63
-80 -86 0 -15 222 -298 300 -384 15 -16 40 -54 56 -84 36 -67 62 -78 122 -55
44 16 162 122 162 145 0 13 -74 111 -147 196 -64 74 -74 107 -42 147 16 21
284 241 437 359 18 14 78 -31 175 -134 63 -68 89 -89 109 -89 34 0 177 106
184 136 5 18 -15 49 -92 146 -53 68 -101 128 -106 135 -7 8 49 59 191 172 110
88 214 167 231 176 43 22 77 10 109 -40 47 -74 164 -205 188 -211 13 -4 33 -4
46 0 30 7 153 120 160 146 6 22 12 14 -244 330 -166 204 -178 213 -233 185z"/>
<path d="M9676 34150 c-44 -39 -109 -155 -101 -181 10 -29 116 -121 305 -262
177 -133 478 -370 976 -768 155 -124 287 -222 308 -229 50 -16 84 -1 137 59
59 66 94 138 78 158 -27 31 -1546 1216 -1588 1238 -45 23 -76 18 -115 -15z"/>
<path d="M8933 33118 c-45 -68 -121 -188 -169 -268 -48 -80 -102 -169 -121
-199 -42 -69 -46 -136 -10 -150 12 -5 47 -28 77 -51 77 -58 90 -54 163 50 32
47 62 92 67 100 11 19 147 -64 905 -549 314 -200 587 -371 608 -379 35 -14 40
-14 65 4 31 23 154 203 149 218 -2 6 -346 227 -765 491 -420 265 -767 486
-772 491 -6 6 11 45 46 104 31 52 60 102 65 111 7 14 -9 28 -84 77 -140 92
-128 95 -224 -50z"/>
<path d="M32695 32991 c-22 -10 -152 -87 -290 -171 -679 -415 -854 -521 -1063
-642 -355 -204 -364 -212 -337 -291 19 -55 123 -190 141 -183 8 3 113 66 232
139 282 174 422 256 440 259 16 3 92 -87 92 -108 0 -6 -42 -47 -92 -91 -107
-93 -384 -374 -446 -452 -55 -70 -54 -91 8 -184 54 -81 70 -93 103 -75 12 6
144 130 294 275 162 157 286 269 307 278 46 19 68 19 143 -4 l62 -19 118 58
c65 32 165 87 223 122 58 36 166 102 240 147 151 92 199 133 241 206 43 75 36
155 -25 275 -33 66 -256 441 -277 466 -16 19 -66 17 -114 -5z m78 -442 c26
-42 50 -92 54 -113 5 -33 2 -40 -38 -79 -46 -45 -353 -237 -452 -282 -73 -34
-104 -28 -154 30 -39 44 -101 150 -93 158 28 25 609 367 620 365 8 -2 36 -37
63 -79z"/>
<path d="M16678 31955 c-60 -100 -582 -1138 -883 -1755 -801 -1639 -1361
-2827 -1342 -2846 21 -21 136 76 657 556 311 287 608 563 660 613 148 144 186
220 250 507 23 102 87 365 141 584 55 220 147 598 205 840 129 541 226 931
305 1223 50 188 59 233 57 290 l-3 68 -47 -80z"/>
<path d="M8179 31646 c-124 -44 -238 -237 -270 -457 -14 -98 -8 -173 20 -227
41 -80 112 -123 441 -267 91 -40 224 -102 295 -137 72 -36 198 -96 280 -133
83 -37 218 -101 300 -143 l150 -76 157 -1 c153 0 157 1 183 25 45 42 96 127
168 284 65 138 71 157 71 217 0 81 -36 162 -94 212 -39 33 -219 127 -243 127
-38 0 -124 -136 -134 -211 -7 -49 10 -70 88 -109 78 -40 80 -44 63 -119 -19
-82 -28 -97 -64 -116 -58 -30 6 -56 -750 302 -585 277 -578 273 -615 313 -24
25 -30 40 -30 75 0 53 28 87 91 111 55 21 93 14 164 -31 96 -61 123 -48 196
97 65 129 66 126 -73 193 -64 31 -144 63 -178 70 -74 18 -168 18 -216 1z"/>
<path d="M33475 31266 c-96 -22 -209 -64 -375 -138 -233 -104 -587 -256 -955
-409 -181 -75 -340 -146 -353 -158 -34 -30 -26 -80 30 -190 35 -71 47 -87 69
-89 14 -2 74 19 140 49 254 115 501 219 519 219 31 0 120 -138 135 -207 9 -43
-13 -61 -133 -111 -398 -165 -489 -205 -539 -239 -21 -15 49 -191 91 -230 43
-40 64 -41 136 -7 30 14 168 75 305 134 246 106 390 169 774 337 106 47 223
96 259 109 175 66 309 160 353 246 27 52 34 130 20 198 -17 79 -127 330 -170
386 -67 89 -184 127 -306 100z m109 -317 c29 -23 79 -115 90 -166 12 -53 -7
-71 -137 -133 -140 -67 -540 -240 -554 -240 -19 0 -42 36 -82 131 -45 106 -49
130 -25 150 25 21 635 278 660 279 12 0 33 -9 48 -21z"/>
<path d="M7554 29956 c-12 -8 -43 -20 -69 -27 -34 -9 -61 -25 -90 -53 -37 -37
-47 -60 -100 -216 -52 -154 -59 -187 -63 -273 -4 -90 -2 -101 23 -153 28 -58
71 -96 155 -139 98 -50 1636 -545 1693 -545 55 0 84 39 118 161 23 82 24 103
5 118 -13 11 -237 82 -486 153 -128 37 -210 72 -209 90 1 33 76 233 90 242 12
7 73 -9 230 -61 118 -39 267 -86 332 -104 109 -31 120 -32 145 -18 38 21 84
152 80 228 l-3 53 -848 264 c-466 145 -858 270 -870 279 -27 19 -106 20 -133
1z m463 -416 c176 -54 306 -100 318 -111 19 -19 19 -19 -3 -93 -42 -144 -61
-186 -85 -186 -26 0 -583 173 -644 200 -58 26 -77 58 -70 120 14 116 67 175
149 166 20 -2 171 -45 335 -96z"/>
<path d="M34190 29638 c-67 -34 -75 -59 -51 -160 18 -73 19 -85 6 -105 -8 -12
-23 -27 -33 -32 -20 -11 -1159 -341 -1472 -426 -127 -35 -199 -60 -207 -71
-19 -26 -16 -94 7 -139 11 -22 20 -51 20 -65 0 -14 6 -34 13 -44 22 -30 114
-13 382 70 77 24 217 63 310 88 442 116 980 271 1008 291 29 20 70 19 90 -2 8
-10 23 -49 33 -88 21 -82 56 -125 102 -125 33 0 135 33 169 55 13 9 23 25 23
37 0 12 -39 153 -86 312 -47 160 -93 316 -101 346 -8 30 -19 61 -25 68 -18 22
-137 15 -188 -10z"/>
<path d="M15923 28305 c-102 -31 -114 -42 -628 -530 -472 -449 -631 -595 -873
-810 -275 -242 -318 -300 -259 -351 12 -11 90 -63 172 -116 83 -52 182 -116
222 -141 124 -79 176 -178 177 -337 1 -47 -5 -472 -12 -945 -14 -932 -16 -951
-73 -1108 -35 -98 -53 -131 -411 -747 -151 -261 -440 -763 -642 -1115 -202
-352 -384 -664 -403 -694 -19 -30 -38 -72 -41 -94 -5 -40 -5 -40 24 -33 36 9
-60 -68 846 681 425 351 834 690 908 751 147 122 191 165 245 247 19 29 151
305 294 612 142 308 329 711 416 895 162 345 202 443 232 571 17 68 18 156 20
1109 0 569 2 1054 2 1078 1 35 7 50 32 74 l30 31 97 -6 c82 -6 628 -75 2072
-261 389 -51 408 -50 459 2 29 29 58 85 129 252 122 289 169 410 177 452 10
51 -22 83 -100 102 -33 9 -312 51 -620 96 -803 116 -1653 244 -1998 301 -310
51 -417 59 -494 34z"/>
<path d="M7037 28127 c-118 -50 -159 -103 -171 -217 -4 -36 -20 -132 -36 -215
-16 -82 -32 -189 -36 -238 -9 -110 2 -127 79 -127 34 0 57 -6 70 -17 15 -14
35 -18 90 -16 53 1 83 -4 115 -18 28 -13 61 -20 90 -18 29 1 60 -4 79 -14 21
-11 56 -17 100 -17 50 0 80 -6 108 -21 31 -15 55 -19 106 -17 47 2 72 -2 84
-12 12 -10 47 -16 104 -19 51 -2 94 -9 106 -17 12 -9 46 -14 93 -14 53 0 83
-5 112 -20 28 -14 57 -20 103 -19 41 1 75 -5 95 -15 18 -9 55 -16 89 -16 40 0
67 -6 83 -17 19 -13 46 -18 106 -19 58 0 87 -5 104 -17 30 -21 98 -22 126 -2
12 8 24 31 28 52 3 21 15 75 25 121 l19 83 -28 14 c-52 27 -213 63 -380 85
-269 35 -314 47 -326 82 -7 24 15 145 32 173 10 16 10 39 -1 112 -32 207 -92
268 -311 313 -233 49 -576 102 -684 106 -106 5 -120 3 -173 -19z m515 -321
c291 -48 319 -57 359 -123 40 -64 23 -172 -33 -206 -12 -8 -115 7 -400 59
l-383 70 3 39 c5 69 32 159 54 182 31 33 87 30 400 -21z"/>
<path d="M33890 27850 c-1050 -189 -1168 -211 -1188 -226 -15 -11 -15 -15 0
-47 9 -19 20 -64 23 -99 4 -34 11 -75 17 -90 10 -27 13 -28 84 -28 81 0 272
33 321 55 17 8 57 15 90 15 70 0 253 34 293 55 17 9 57 15 97 15 44 1 75 6 87
15 13 10 44 15 88 15 45 0 80 6 101 17 18 9 61 17 99 19 41 1 76 8 90 18 15
11 45 16 93 16 42 1 80 6 95 15 14 8 48 14 77 15 29 0 75 9 103 20 32 13 75
20 118 20 43 1 74 6 86 15 13 10 43 15 81 15 90 0 100 14 85 116 -20 148 -38
185 -88 183 -15 -1 -398 -68 -852 -149z"/>
<path d="M34380 26690 c-113 -4 -225 -12 -250 -18 -25 -6 -135 -13 -245 -17
-110 -3 -236 -12 -280 -19 -44 -8 -142 -15 -218 -15 -248 -2 -342 -27 -421
-111 -85 -91 -109 -171 -83 -275 9 -33 19 -94 22 -135 13 -158 36 -286 58
-330 18 -35 34 -51 77 -72 l54 -28 275 0 c217 1 289 4 336 16 40 11 139 18
300 24 132 4 258 13 280 19 22 6 122 11 221 11 138 0 190 4 217 15 20 8 53 15
74 15 44 0 128 51 161 97 64 92 75 155 61 362 -17 258 -47 353 -129 407 -87
58 -173 67 -510 54z m313 -292 c54 -28 83 -195 50 -283 -16 -44 -23 -51 -58
-62 -22 -6 -290 -28 -595 -47 -722 -47 -818 -51 -853 -37 -44 17 -61 69 -61
187 -1 109 9 135 60 154 37 14 327 38 839 70 270 17 501 32 515 34 31 4 79 -3
103 -16z"/>
<path d="M6668 26305 c-5 -5 -8 -82 -8 -171 0 -157 1 -164 22 -175 12 -6 96
-29 187 -50 224 -51 854 -208 860 -214 15 -16 -55 -32 -459 -104 -245 -44
-473 -88 -507 -97 -73 -19 -107 -47 -122 -100 -15 -55 -14 -226 2 -247 11 -14
69 -16 582 -20 352 -3 593 -9 630 -16 65 -12 866 -18 884 -6 7 4 11 54 11 129
l0 123 -152 7 c-84 3 -322 8 -528 12 -348 5 -470 14 -470 35 0 16 27 23 90 25
37 1 78 9 95 18 18 9 55 16 90 16 37 0 68 6 79 15 13 10 43 15 83 15 39 0 81
8 113 20 30 12 74 20 110 20 48 0 64 5 87 24 25 22 28 31 31 103 6 119 20 110
-328 199 -162 41 -307 76 -322 78 -52 6 -158 41 -163 53 -7 20 224 17 300 -3
46 -11 112 -15 277 -15 128 1 250 -4 295 -12 43 -6 124 -12 180 -12 93 0 105
2 125 23 21 21 23 32 23 128 0 148 14 140 -261 143 -121 1 -334 8 -474 16
-140 8 -338 15 -440 15 -179 1 -531 12 -790 26 -69 3 -128 3 -132 -1z"/>
<path d="M32952 24830 c-22 -9 -23 -12 -20 -137 l3 -128 628 -3 c532 -2 627
-4 627 -16 0 -8 -20 -21 -47 -30 -27 -8 -208 -65 -403 -125 -195 -61 -373
-117 -395 -125 -29 -11 -88 -15 -222 -16 l-183 0 0 -128 0 -129 737 -6 c405
-4 875 -7 1044 -7 l308 0 8 38 c9 48 9 156 0 204 l-8 38 -452 2 -452 3 34 24
c23 17 53 26 100 31 46 4 89 17 142 43 44 22 128 49 205 67 157 37 399 116
419 137 13 12 15 39 13 142 l-3 126 -1030 2 c-607 1 -1039 -2 -1053 -7z"/>
<path d="M6669 24271 c-22 -18 -23 -26 -24 -132 0 -135 6 -162 40 -177 39 -18
2000 -17 2035 1 25 12 25 15 28 151 2 119 0 141 -14 157 -16 18 -55 19 -1029
19 -977 0 -1014 -1 -1036 -19z"/>
<path d="M17529 22376 c-10 -25 -26 -91 -35 -148 -9 -57 -30 -177 -47 -268
-17 -95 -31 -201 -31 -249 -1 -84 -1 -85 29 -102 22 -12 105 -24 322 -44 l291
-27 45 20 45 20 7 63 c7 69 42 293 75 478 11 62 20 142 20 176 l0 62 -112 13
c-62 6 -171 20 -243 31 -71 10 -179 19 -238 19 l-108 0 -20 -44z"/>
<path d="M15225 21486 c-52 -44 -760 -608 -1270 -1010 -334 -264 -367 -293
-403 -361 l-27 -50 -3 -940 c-2 -517 0 -955 3 -972 4 -25 13 -35 33 -40 15 -5
119 -8 232 -8 184 0 212 2 275 22 111 35 182 85 403 281 114 101 339 295 500
429 162 135 309 266 328 292 19 25 43 75 54 110 20 62 20 90 20 1167 0 1081 0
1104 -19 1114 -40 21 -75 11 -126 -34z"/>
<path d="M26740 17900 c-24 -24 -25 -50 -5 -195 11 -74 18 -239 22 -503 l6
-393 25 -19 c45 -36 113 -19 132 34 18 49 25 562 11 776 -15 225 -22 264 -52
296 -30 32 -109 34 -139 4z"/>
<path d="M28970 17629 c-7 -12 -22 -31 -35 -43 -12 -12 -37 -59 -55 -106 -44
-112 -184 -426 -254 -569 -44 -89 -56 -124 -56 -161 l0 -47 73 -13 c57 -11
230 -14 832 -14 418 1 770 4 782 8 11 4 23 13 26 20 4 9 -221 176 -640 477
-356 255 -650 465 -654 467 -4 2 -13 -7 -19 -19z"/>
<path d="M26723 16268 c-11 -13 -26 -39 -32 -58 -16 -51 -173 -892 -167 -897
8 -8 76 105 119 196 59 128 131 355 171 543 20 91 36 171 36 178 0 6 -11 22
-25 35 -31 32 -75 33 -102 3z"/>
<path d="M26439 15042 c-175 -47 -304 -187 -316 -345 -7 -77 8 -126 51 -175
49 -55 103 -74 236 -81 l115 -7 -71 -71 c-76 -76 -123 -109 -274 -193 -144
-79 -147 -83 -75 -75 193 21 417 143 578 314 224 239 238 552 28 626 -71 25
-194 29 -272 7z m201 -65 c47 -24 70 -73 70 -148 0 -123 -58 -228 -158 -287
-40 -23 -59 -27 -119 -27 -68 0 -74 2 -108 35 -62 60 -68 141 -19 246 54 115
159 194 258 194 28 0 62 -6 76 -13z"/>
<path d="M27437 15044 c-167 -40 -281 -143 -281 -254 0 -53 21 -96 73 -154 60
-65 60 -66 -43 -119 -115 -60 -184 -112 -208 -157 -38 -72 -11 -184 56 -235
85 -65 298 -74 419 -17 75 35 148 97 171 146 20 43 21 126 1 173 -8 20 -32 59
-52 86 -33 47 -34 52 -18 62 214 125 285 200 285 302 0 58 -22 95 -80 134 -72
49 -204 62 -323 33z m190 -73 c75 -35 96 -115 50 -194 -44 -75 -152 -157 -207
-157 -51 0 -160 144 -160 212 0 56 45 114 110 142 50 22 155 20 207 -3z m-250
-481 c38 -23 87 -88 103 -136 36 -109 -73 -227 -209 -227 -90 0 -153 45 -167
119 -14 76 62 190 158 238 62 31 73 32 115 6z"/>
<path d="M28403 15045 c-282 -76 -530 -417 -510 -702 13 -173 102 -260 279
-271 101 -6 191 21 290 88 316 211 455 701 239 843 -80 53 -196 69 -298 42z
m186 -84 c55 -27 74 -72 67 -161 -15 -211 -116 -424 -265 -562 -161 -150 -329
-118 -348 66 -14 136 68 347 200 514 118 150 235 198 346 143z"/>
<path d="M25700 15026 c-108 -29 -210 -68 -280 -108 -68 -38 -120 -76 -120
-89 0 -17 67 -9 134 16 77 29 99 31 116 9 11 -13 4 -38 -45 -157 -32 -78 -82
-205 -112 -282 -29 -77 -66 -158 -81 -180 -41 -59 -99 -87 -176 -87 -73 1 -89
-7 -84 -39 l3 -24 295 0 295 0 3 24 c5 31 -12 41 -71 41 -52 0 -107 23 -107
44 0 17 44 127 207 526 69 168 128 311 130 318 7 16 -8 15 -107 -12z"/>
<path d="M15089 6715 c-14 -8 -71 -25 -127 -39 -102 -25 -169 -53 -190 -79
-10 -11 -5 -16 27 -26 57 -17 98 -68 106 -133 3 -29 5 -264 3 -523 -3 -530 -2
-518 -77 -549 -28 -11 -42 -23 -47 -41 -4 -14 -4 -28 -2 -31 10 -10 267 -17
361 -9 l97 7 0 33 c0 31 -3 35 -34 41 -19 3 -45 17 -58 31 l-23 25 -5 653 -5
653 -26 -13z"/>
<path d="M14490 6695 c-25 -7 -79 -20 -120 -29 -41 -9 -90 -25 -108 -36 l-33
-20 43 -33 c87 -67 88 -69 90 -336 4 -424 -3 -795 -14 -824 -7 -19 -27 -36
-57 -50 -35 -17 -47 -28 -49 -48 -3 -25 -1 -26 65 -32 87 -9 239 -9 326 0 66
6 67 6 67 35 0 22 -6 31 -27 39 -16 7 -38 16 -49 21 -49 23 -49 21 -49 683 0
341 -4 626 -8 633 -10 14 -18 14 -77 -3z"/>
<path d="M27700 6669 c-52 -17 -101 -36 -107 -41 -23 -19 -13 -45 27 -72 70
-46 68 -26 71 -581 2 -400 0 -505 -10 -525 -22 -42 -62 -79 -98 -91 -34 -11
-40 -27 -23 -60 10 -18 23 -19 188 -19 97 0 201 3 230 6 49 6 52 8 52 36 0 24
-6 31 -44 48 -25 10 -50 29 -57 42 -17 30 -25 798 -11 1018 5 85 7 180 3 210
l-6 55 -60 2 c-45 2 -84 -5 -155 -28z"/>
<path d="M31235 6676 c-99 -28 -142 -50 -150 -76 -10 -32 20 -70 54 -70 16 0
36 -9 47 -21 18 -20 19 -44 19 -554 0 -511 -1 -534 -19 -554 -11 -12 -37 -26
-58 -33 -41 -12 -63 -52 -38 -68 23 -14 191 -22 322 -15 l129 8 -3 35 c-3 32
-7 37 -37 43 -18 4 -43 17 -55 28 -20 20 -21 32 -24 243 -2 131 1 231 7 243 5
11 12 32 15 47 9 38 71 98 101 98 29 0 94 -56 126 -106 15 -24 19 -44 15 -64
-3 -16 -1 -32 4 -35 8 -5 6 -261 -4 -457 l-4 -78 164 0 164 0 0 29 c0 20 -6
32 -18 35 -10 4 -32 20 -48 37 l-29 30 -1 267 c-1 294 -12 372 -60 445 -31 47
-104 83 -187 93 -73 9 -137 -14 -173 -62 -17 -22 -35 -34 -50 -34 l-24 0 0
269 c0 302 0 302 -68 300 -20 0 -73 -11 -117 -23z"/>
<path d="M32245 6689 c-30 -15 -76 -93 -82 -137 -3 -24 0 -50 10 -68 19 -36
111 -124 130 -124 8 0 35 16 60 35 99 76 102 206 6 278 -31 22 -96 31 -124 16z"/>
<path d="M17192 6674 c-35 -24 -52 -68 -52 -132 0 -47 5 -67 29 -104 17 -26
44 -54 61 -63 31 -16 33 -16 71 11 97 67 115 199 39 276 -23 23 -37 28 -77 28
-28 0 -58 -7 -71 -16z"/>
<path d="M27180 6671 c-47 -15 -140 -66 -140 -77 0 -2 18 -21 41 -41 49 -44
66 -76 70 -128 1 -22 2 -257 1 -521 -2 -538 1 -518 -72 -533 -33 -6 -35 -9
-35 -46 l0 -40 204 -3 c179 -2 206 0 222 14 28 26 23 48 -18 75 -20 13 -46 37
-57 52 -21 28 -21 36 -20 648 l1 619 -71 -1 c-39 0 -96 -8 -126 -18z"/>
<path d="M12671 6650 c-191 -51 -325 -157 -410 -327 -96 -192 -106 -448 -26
-645 72 -177 235 -337 422 -414 49 -20 75 -24 170 -24 107 0 118 2 220 40 126
48 147 60 173 103 21 33 27 97 10 97 -5 0 -45 -16 -89 -35 -56 -25 -94 -35
-130 -35 -27 0 -53 -5 -57 -11 -4 -6 -21 -9 -43 -6 -120 18 -170 30 -208 48
-93 45 -187 188 -235 355 -33 118 -31 296 6 417 35 119 65 175 120 225 49 45
82 62 122 62 13 0 41 9 61 20 21 11 53 20 71 20 18 0 50 -9 72 -20 22 -11 51
-20 65 -20 14 0 40 -6 58 -14 53 -22 77 -56 88 -127 6 -35 13 -74 15 -86 5
-24 41 -40 56 -25 5 5 12 38 14 73 3 35 12 96 21 135 22 95 15 116 -44 141
-175 74 -367 93 -522 53z"/>
<path d="M8169 6622 c-15 -39 2 -68 44 -76 18 -3 45 -18 58 -32 l24 -26 3
-441 c2 -243 1 -484 -3 -536 -8 -104 -23 -131 -73 -131 -15 0 -33 -5 -40 -12
-14 -14 -16 -74 -2 -83 5 -3 120 -3 255 1 l245 7 0 26 c0 38 -10 48 -53 56
-22 4 -45 18 -57 32 -19 25 -20 42 -20 553 0 597 -5 557 81 589 34 13 45 22
47 42 6 49 -20 57 -148 49 -107 -7 -182 -6 -303 5 -44 4 -49 2 -58 -23z"/>
<path d="M20165 6626 c-26 -39 -16 -58 44 -81 41 -15 58 -28 67 -50 17 -40 20
-1016 3 -1064 -12 -35 -35 -51 -73 -51 -33 0 -56 -25 -56 -61 l0 -29 270 0
270 0 0 29 c0 39 -24 61 -66 61 -23 0 -43 8 -58 23 -32 32 -35 99 -36 645 0
418 1 443 19 461 25 25 82 34 131 21 104 -28 168 -176 140 -325 -21 -111 -65
-157 -170 -178 l-65 -13 3 -35 c5 -50 24 -59 122 -59 l86 0 76 50 c160 105
215 229 189 427 -14 112 -44 163 -121 207 l-55 31 -303 1 c-167 1 -325 4 -352
8 -45 6 -51 4 -65 -18z"/>
<path d="M25326 6633 c-10 -11 -7 -58 6 -71 7 -7 22 -12 35 -12 12 0 37 -13
55 -29 l33 -29 0 -530 0 -530 -24 -26 c-13 -14 -42 -29 -65 -33 -38 -8 -41
-11 -44 -44 l-3 -36 83 -6 c106 -9 303 -9 391 0 60 5 67 8 67 27 0 38 -28 66
-66 66 -26 0 -44 8 -65 29 l-29 29 0 226 0 225 26 20 c38 30 124 29 184 -1 42
-21 45 -26 52 -72 8 -59 30 -86 56 -70 15 10 17 33 17 215 l0 204 -30 0 c-19
0 -30 -5 -32 -15 -10 -80 -15 -90 -46 -106 -25 -13 -48 -15 -111 -11 -120 10
-116 2 -116 232 0 137 4 196 13 208 21 29 124 40 209 22 85 -17 108 -38 108
-97 0 -49 15 -78 39 -78 23 0 41 46 41 104 0 23 8 63 17 89 16 44 16 50 1 75
l-17 27 -389 2 c-214 1 -392 0 -396 -4z"/>
<path d="M9976 6505 c-49 -23 -95 -50 -102 -60 -10 -13 -12 -41 -7 -109 7
-111 -11 -183 -62 -250 -19 -26 -35 -51 -35 -56 0 -6 15 -10 34 -10 60 0 61
-4 62 -314 1 -170 5 -294 12 -313 31 -93 92 -139 172 -130 27 3 71 17 99 31
28 15 67 26 89 26 69 0 84 49 30 99 -28 26 -39 30 -86 29 -66 -2 -76 8 -98 92
-14 54 -15 97 -11 262 4 109 9 203 12 207 3 5 39 12 80 16 l75 7 0 54 c0 49
-2 55 -26 64 -14 6 -42 10 -63 10 -26 0 -44 7 -57 21 -17 19 -19 35 -16 189 2
92 0 170 -5 172 -4 3 -48 -14 -97 -37z"/>
<path d="M18630 6524 c-141 -64 -145 -70 -145 -222 0 -131 -14 -176 -66 -213
-18 -13 -29 -29 -29 -45 0 -20 5 -24 30 -24 21 0 35 -8 47 -27 16 -24 18 -57
20 -290 2 -271 9 -325 45 -375 44 -62 101 -73 248 -47 142 24 150 30 127 103
-19 58 -30 66 -98 66 -52 0 -97 18 -105 43 -5 12 -7 130 -6 262 3 281 -1 271
96 267 l64 -2 7 38 c3 21 2 50 -4 64 -10 27 -20 31 -113 43 l-48 6 -1 42 c-1
23 0 108 1 190 1 81 -2 147 -7 146 -4 0 -33 -12 -63 -25z"/>
<path d="M28468 6230 c-188 -34 -275 -99 -306 -230 -35 -146 -34 -384 3 -525
43 -165 149 -235 353 -235 77 0 90 3 153 36 83 44 160 119 195 189 58 119 70
371 25 517 -38 121 -121 210 -219 238 -55 15 -151 20 -204 10z m131 -140 c41
-41 69 -124 81 -233 20 -193 6 -366 -37 -441 -10 -17 -36 -39 -57 -50 -32 -16
-44 -17 -76 -7 -51 15 -75 47 -105 142 -51 164 -54 335 -8 502 21 77 65 117
128 117 35 0 49 -6 74 -30z"/>
<path d="M8945 6193 c-147 -41 -170 -52 -170 -81 0 -16 12 -28 45 -44 25 -13
51 -34 57 -48 16 -32 18 -545 2 -587 -15 -40 -47 -71 -80 -78 -31 -7 -48 -40
-30 -58 8 -8 83 -13 220 -15 l208 -4 7 25 c8 35 0 51 -33 64 -61 22 -66 43
-69 295 -3 225 -3 229 21 282 28 60 64 86 119 86 116 -1 144 -99 133 -475 -3
-121 -8 -230 -11 -242 l-4 -23 170 0 c170 0 170 0 170 23 -1 14 -13 30 -32 42
-17 11 -41 33 -52 48 -20 27 -21 41 -21 315 0 210 -4 298 -14 327 -59 180
-247 235 -387 114 -25 -21 -51 -39 -59 -39 -7 0 -21 22 -30 49 -9 27 -21 51
-28 53 -7 2 -66 -11 -132 -29z"/>
<path d="M11595 6215 c-38 -21 -75 -55 -75 -70 0 -19 -39 -50 -50 -39 -5 5
-10 32 -12 59 -3 47 -5 50 -33 53 -37 5 -263 -56 -287 -76 -41 -35 -4 -81 73
-91 3 -1 12 -34 19 -73 18 -94 15 -519 -3 -557 -7 -15 -33 -36 -59 -49 -41
-19 -48 -26 -48 -52 l0 -30 235 0 235 0 0 29 c0 35 -31 61 -72 61 -50 0 -54
14 -61 198 -5 165 3 286 23 347 11 33 58 65 94 65 13 0 35 -9 49 -20 30 -24
73 -26 81 -4 3 9 9 59 12 112 6 118 -4 146 -56 150 -19 1 -48 -5 -65 -13z"/>
<path d="M13628 6216 c-189 -54 -272 -201 -272 -476 1 -246 64 -383 214 -465
48 -25 68 -30 152 -33 92 -4 101 -3 162 26 86 40 158 109 197 187 75 153 78
443 6 598 -32 67 -79 114 -147 146 -46 21 -72 26 -160 28 -66 1 -123 -3 -152
-11z m186 -127 c54 -47 77 -120 85 -274 15 -282 -12 -409 -92 -449 -33 -16
-45 -17 -77 -7 -54 16 -84 57 -109 149 -47 173 -48 337 -4 495 31 112 123 152
197 86z"/>
<path d="M16400 6213 c-96 -33 -177 -120 -201 -216 -19 -77 -15 -196 9 -250
11 -25 43 -69 71 -98 l51 -53 -44 -46 c-24 -25 -49 -55 -55 -67 -19 -36 -13
-100 14 -153 14 -27 25 -57 25 -67 0 -10 -24 -41 -54 -68 -50 -47 -54 -54 -61
-109 -16 -123 25 -204 139 -278 l61 -39 170 3 c162 4 173 6 223 32 146 74 242
250 242 441 0 98 -50 175 -130 201 -14 4 -113 8 -221 9 -179 0 -199 2 -218 19
-26 23 -27 56 -3 86 14 17 29 22 63 22 71 0 150 18 210 48 102 52 158 142 167
265 6 89 22 121 64 130 49 11 58 23 58 75 l0 47 -98 16 c-53 8 -137 27 -186
41 -104 31 -225 34 -296 9z m183 -111 c51 -44 76 -166 57 -270 -15 -83 -28
-110 -61 -128 -68 -35 -128 -6 -164 80 -25 60 -23 210 4 270 31 72 111 95 164
48z m155 -868 c76 -53 71 -197 -11 -282 -141 -147 -407 -73 -407 113 0 62 27
122 69 158 32 27 34 27 180 27 117 0 151 -3 169 -16z"/>
<path d="M17265 6199 c-55 -16 -126 -32 -158 -35 -49 -6 -58 -10 -63 -30 -10
-41 -1 -58 38 -67 73 -17 73 -15 76 -336 2 -215 -1 -292 -10 -311 -7 -14 -34
-35 -61 -48 -40 -19 -47 -27 -47 -51 0 -28 1 -28 77 -35 147 -12 370 -3 389
17 4 3 1 19 -5 35 -9 21 -22 31 -56 40 -27 7 -49 20 -56 33 -8 15 -11 132 -11
395 0 206 -3 384 -6 398 l-7 24 -100 -29z"/>
<path d="M17892 6219 c-50 -10 -137 -52 -171 -82 -47 -43 -66 -132 -37 -172
12 -17 18 -18 40 -7 14 6 26 18 26 25 0 18 49 63 80 75 57 21 126 -29 173
-124 31 -66 22 -73 -187 -148 -166 -60 -196 -98 -215 -263 -9 -85 -8 -97 11
-145 11 -29 38 -70 59 -90 36 -36 41 -38 104 -38 l66 0 65 61 c38 35 72 59 82
57 9 -2 22 -18 28 -36 17 -53 20 -54 168 -46 134 7 136 7 136 30 0 17 -12 31
-40 49 -23 14 -45 37 -50 51 -6 14 -10 152 -10 310 0 335 -4 357 -69 425 -67
69 -148 90 -259 68z m126 -597 c-4 -117 -19 -148 -85 -171 -79 -28 -123 12
-123 114 0 55 19 96 59 124 34 25 132 52 144 41 5 -4 7 -53 5 -108z"/>
<path d="M19283 6215 c-213 -59 -333 -227 -333 -465 0 -188 81 -356 222 -462
l50 -38 117 0 c114 0 118 1 171 33 65 39 90 71 97 125 7 49 -1 51 -81 27 -27
-8 -79 -15 -116 -15 -122 0 -174 59 -214 242 -5 23 -1 30 26 45 27 14 59 18
168 18 121 0 141 3 195 25 l60 25 -1 100 c-2 120 -25 190 -84 258 -71 80 -174
111 -277 82z m89 -142 c32 -28 59 -98 61 -158 3 -79 -8 -86 -129 -86 -89 0
-101 2 -116 22 -37 45 -10 168 49 219 31 28 42 31 75 27 22 -3 49 -14 60 -24z"/>
<path d="M21571 6175 c-32 -30 -61 -55 -64 -55 -3 0 -15 20 -26 45 -17 39 -24
45 -50 45 -46 0 -274 -58 -283 -72 -19 -31 0 -68 35 -68 10 0 32 -13 48 -30
l30 -29 -3 -295 c-3 -329 -2 -323 -77 -347 -41 -13 -51 -24 -51 -56 0 -23 2
-23 138 -23 75 0 181 -3 234 -7 l97 -6 6 26 c10 39 -10 66 -55 73 -74 12 -75
15 -75 289 l0 244 30 31 c17 18 43 38 58 47 27 13 31 13 66 -11 83 -58 111
-32 111 107 0 118 -15 147 -78 147 -27 0 -45 -11 -91 -55z"/>
<path d="M22043 6213 c-52 -18 -135 -91 -157 -138 -21 -44 -17 -104 7 -119 15
-9 25 -2 68 47 44 49 55 57 86 57 77 0 163 -86 163 -163 0 -34 -24 -49 -131
-86 -107 -36 -134 -49 -186 -83 -83 -56 -118 -164 -94 -291 22 -119 55 -152
174 -177 48 -10 61 -9 75 2 9 8 47 40 83 71 l67 57 11 -45 c6 -25 19 -49 30
-55 12 -6 66 -7 145 -3 l126 6 0 26 c0 18 -9 31 -29 43 -64 36 -66 44 -63 328
4 259 -4 355 -34 411 -21 41 -74 90 -119 110 -49 23 -162 24 -222 2z m167
-580 c0 -131 -15 -166 -79 -183 -82 -22 -123 17 -125 117 0 56 17 89 66 126
22 16 99 43 131 46 4 1 7 -47 7 -106z"/>
<path d="M23831 6219 c-75 -15 -168 -65 -220 -118 -147 -150 -174 -415 -64
-623 40 -76 107 -156 167 -200 37 -27 44 -28 152 -28 76 0 121 4 141 14 15 8
41 18 58 23 33 9 80 72 90 119 l6 31 -143 -4 c-135 -4 -145 -3 -183 19 -52 30
-94 111 -98 188 -2 54 -1 55 33 73 30 15 50 17 132 11 75 -5 113 -3 170 11
112 27 108 23 108 118 0 105 -22 189 -65 252 -42 60 -89 94 -158 112 -57 14
-63 15 -126 2z m74 -150 c57 -51 83 -178 44 -225 -8 -10 -37 -14 -110 -14 -87
0 -101 2 -120 21 -18 18 -20 28 -15 72 21 154 114 222 201 146z"/>
<path d="M24565 6225 c-5 -2 -64 -18 -130 -35 -149 -40 -155 -43 -155 -81 0
-24 6 -33 33 -44 18 -7 40 -22 49 -32 27 -29 37 -166 31 -397 -6 -200 -7 -209
-30 -236 -13 -16 -37 -31 -53 -35 -32 -7 -45 -33 -35 -66 6 -19 12 -21 52 -15
25 3 131 6 236 6 l190 0 -7 32 c-8 42 -16 49 -65 55 -69 9 -71 15 -71 280 0
127 4 242 9 255 12 31 76 81 105 81 12 0 39 -12 60 -27 43 -29 45 -29 65 -17
11 7 16 39 19 124 6 143 -2 161 -62 155 -55 -7 -118 -49 -139 -94 -23 -47 -52
-43 -53 6 0 19 -1 43 -2 52 -2 18 -30 37 -47 33z"/>
<path d="M30590 6217 c-70 -20 -132 -68 -165 -129 -28 -50 -30 -59 -30 -168 0
-107 2 -118 27 -162 47 -79 105 -113 238 -138 139 -26 168 -91 95 -215 -25
-44 -27 -45 -75 -45 -27 0 -52 5 -55 10 -3 6 -20 10 -36 10 -20 0 -40 10 -60
29 -25 26 -29 37 -29 85 0 48 -4 60 -29 88 l-30 33 -15 -36 c-9 -21 -18 -87
-22 -160 -6 -117 -5 -125 14 -142 26 -24 146 -40 267 -35 83 3 94 6 140 37
135 92 176 164 176 309 0 171 -52 221 -299 288 -48 13 -70 25 -97 55 -47 52
-45 88 7 146 18 19 27 21 96 16 43 -3 86 -11 97 -18 21 -13 45 -57 61 -110 11
-37 47 -46 63 -16 6 11 14 53 17 93 12 143 -28 179 -206 185 -65 2 -122 -2
-150 -10z"/>
<path d="M32852 6209 c-24 -10 -87 -28 -140 -39 -102 -20 -127 -37 -116 -74
10 -34 24 -45 66 -56 26 -8 45 -21 58 -42 18 -30 19 -59 20 -530 0 -327 -3
-513 -10 -539 -12 -42 -56 -79 -95 -79 -41 0 -57 -36 -29 -64 18 -18 109 -21
352 -9 126 5 142 8 142 23 0 28 -32 56 -77 69 -24 6 -47 21 -53 31 -6 11 -13
85 -15 164 -5 135 -4 145 17 171 19 25 25 27 70 21 73 -10 118 7 216 83 190
147 259 293 249 521 -7 177 -56 277 -161 333 -93 49 -297 15 -323 -54 -9 -24
-17 -30 -35 -27 -21 3 -23 7 -20 50 2 38 -1 49 -17 57 -27 15 -49 13 -99 -10z
m309 -183 c38 -8 96 -77 113 -135 51 -174 14 -396 -79 -467 -47 -36 -99 -40
-154 -12 -84 43 -86 48 -86 301 0 242 3 255 60 293 28 19 82 33 105 29 8 -2
27 -6 41 -9z"/>
<path d="M10628 6204 c-71 -22 -167 -92 -211 -154 -52 -75 -68 -135 -74 -281
-12 -280 51 -409 242 -500 50 -24 73 -29 138 -29 71 0 85 4 158 40 87 44 119
81 119 138 0 38 -10 40 -97 17 -72 -19 -166 -19 -201 -1 -62 33 -105 108 -126
219 -7 37 -6 38 38 58 40 17 59 19 143 13 82 -5 110 -3 173 15 41 12 81 29 88
38 17 24 15 149 -4 214 -44 150 -140 229 -274 228 -36 0 -86 -7 -112 -15z
m124 -131 c34 -29 58 -93 58 -153 0 -30 -4 -61 -9 -69 -20 -32 -222 -32 -242
0 -28 45 5 173 58 219 31 28 42 31 75 27 22 -3 49 -14 60 -24z"/>
<path d="M15618 6196 c-120 -49 -207 -140 -245 -256 -26 -81 -26 -352 1 -430
41 -120 102 -190 210 -241 52 -25 73 -29 144 -29 78 0 89 3 160 40 85 44 100
60 108 124 l6 43 -63 -13 c-218 -46 -311 10 -348 210 l-9 48 44 19 c37 17 57
19 133 13 94 -7 210 12 260 43 23 15 24 18 19 118 -5 83 -11 114 -33 164 -30
66 -94 133 -150 157 -54 22 -170 18 -237 -10z m129 -116 c43 -26 65 -71 71
-147 7 -93 -5 -103 -125 -103 -80 0 -96 3 -113 20 -40 40 -19 153 40 212 43
44 77 49 127 18z"/>
<path d="M26514 6206 c-121 -38 -214 -149 -249 -298 -19 -80 -19 -272 -1 -359
28 -128 99 -223 210 -278 56 -27 73 -31 149 -31 78 0 93 3 161 36 85 40 116
72 116 118 0 54 -8 57 -90 35 -116 -30 -167 -24 -223 29 -36 33 -80 120 -98
190 -11 46 -11 55 1 62 8 6 80 10 160 11 120 1 156 4 210 22 92 31 107 68 75
192 -54 206 -138 285 -300 284 -44 0 -98 -6 -121 -13z m137 -129 c61 -40 92
-184 49 -227 -17 -17 -33 -20 -107 -20 -108 0 -123 10 -123 84 2 144 90 224
181 163z"/>
<path d="M29647 6200 c-16 -13 -29 -38 -37 -72 -7 -29 -36 -114 -65 -188 -29
-74 -63 -165 -76 -202 -13 -36 -26 -65 -30 -62 -12 7 -46 122 -74 252 -30 142
-26 165 38 195 28 13 37 23 37 42 l0 25 -212 -2 -213 -3 -3 -31 c-3 -26 1 -33
21 -38 52 -13 77 -72 117 -279 34 -172 107 -471 131 -533 8 -22 14 -24 76 -24
38 0 73 4 79 8 6 4 14 27 18 51 4 24 33 112 64 195 32 83 65 171 73 196 16 51
44 63 71 33 9 -10 39 -86 67 -168 27 -83 65 -186 84 -230 l34 -80 72 -3 72 -3
15 36 c8 20 37 130 65 243 78 325 128 456 218 570 23 28 41 54 41 57 0 3 -75
4 -167 3 l-168 -3 -3 -31 c-3 -30 0 -33 42 -49 66 -25 68 -31 41 -110 -14 -39
-42 -126 -63 -195 l-39 -125 -27 42 c-24 37 -123 304 -155 421 -7 24 -21 52
-32 63 -25 25 -79 25 -112 -1z"/>
<path d="M32305 6209 c-63 -15 -168 -51 -192 -67 -36 -23 -30 -58 15 -86 85
-54 89 -72 85 -381 -4 -260 -4 -262 -84 -303 -24 -12 -44 -27 -43 -32 1 -6 2
-18 3 -29 1 -17 14 -19 126 -26 68 -4 172 -4 230 0 92 6 105 10 105 25 0 30
-11 50 -29 50 -34 0 -80 38 -90 77 -7 23 -11 172 -11 384 0 316 -2 349 -17
367 -23 26 -49 32 -98 21z"/>
<path d="M22593 6189 c-38 -14 -30 -54 17 -84 21 -13 44 -34 51 -46 11 -21
213 -639 251 -769 24 -81 18 -134 -23 -218 -34 -70 -97 -142 -123 -142 -9 0
-39 11 -66 25 -27 14 -54 25 -59 25 -14 0 -33 -101 -29 -152 4 -61 29 -71 139
-57 69 8 89 15 113 37 45 43 116 204 225 512 145 414 247 692 265 728 9 17 32
43 51 58 38 29 44 54 19 78 -13 14 -37 16 -143 13 -70 -2 -133 -7 -139 -11 -7
-4 -12 -18 -12 -31 0 -17 11 -30 42 -47 24 -13 44 -31 46 -41 5 -23 -90 -319
-131 -410 l-31 -70 -18 54 c-68 198 -128 406 -123 426 3 12 20 30 38 39 50 26
60 50 31 79 -14 13 -43 15 -193 14 -97 0 -186 -5 -198 -10z"/>
<path d="M22151 3923 c-7 -15 -150 -334 -318 -707 -357 -797 -360 -802 -412
-883 -41 -64 -89 -102 -153 -123 -30 -9 -38 -17 -38 -36 l0 -24 290 0 290 0 0
23 c0 21 -7 24 -77 35 -88 14 -116 29 -139 74 -28 54 -10 131 76 321 l21 47
313 0 312 0 68 -161 c52 -126 66 -170 64 -201 -4 -58 -36 -79 -127 -86 -67 -4
-71 -6 -71 -28 l0 -24 425 0 425 0 0 23 c0 19 -8 25 -44 35 -57 15 -97 50
-142 124 -20 33 -191 410 -378 837 -216 490 -348 777 -357 779 -9 2 -21 -9
-28 -25z m-11 -876 l127 -292 -260 -3 c-143 -1 -261 -1 -263 1 -2 2 56 137
128 300 73 163 134 294 137 291 3 -2 62 -136 131 -297z"/>
<path d="M14740 3896 c0 -21 5 -24 69 -29 120 -10 158 -42 172 -144 10 -82 11
-1306 0 -1381 -14 -95 -61 -133 -173 -140 -64 -4 -68 -6 -68 -28 l0 -24 460 0
460 0 0 25 c0 24 -3 25 -58 25 -68 0 -134 29 -166 73 -21 28 -21 37 -21 762 0
730 0 734 21 762 33 45 79 65 155 71 65 4 69 6 69 28 l0 24 -460 0 -460 0 0
-24z"/>
<path d="M15770 3896 c0 -22 5 -24 69 -30 82 -8 129 -32 156 -77 20 -33 20
-52 20 -754 0 -706 0 -721 -20 -755 -29 -49 -72 -70 -154 -77 -66 -5 -71 -7
-71 -29 l0 -24 455 0 455 0 0 25 c0 23 -4 25 -46 25 -122 0 -187 47 -199 142
-3 29 -5 179 -3 333 l3 280 52 3 52 3 43 -59 c24 -32 153 -214 288 -405 l245
-347 277 0 278 0 0 23 c0 19 -8 25 -45 35 -25 7 -63 28 -86 49 -38 35 -536
721 -527 727 1 2 33 13 71 26 171 56 281 181 307 348 39 249 -119 468 -378
526 -117 26 -328 36 -799 36 l-443 0 0 -24z m932 -87 c154 -33 233 -121 259
-290 29 -189 -33 -359 -154 -420 -59 -31 -161 -49 -274 -49 l-103 0 0 385 0
385 110 0 c60 0 133 -5 162 -11z"/>
<path d="M17700 3896 c0 -22 4 -24 69 -28 76 -6 122 -26 155 -71 21 -28 21
-32 21 -760 0 -700 -1 -733 -19 -763 -28 -47 -70 -67 -153 -72 -69 -4 -73 -6
-73 -28 l0 -24 765 0 c605 0 765 3 765 13 1 6 18 133 38 280 l38 268 -23 -3
c-20 -2 -30 -18 -57 -87 -81 -199 -213 -314 -411 -356 -100 -21 -326 -20 -371
1 -66 32 -68 41 -69 404 l0 325 53 -1 c180 -5 273 -113 316 -366 6 -32 11 -38
31 -38 l25 0 0 460 0 460 -25 0 c-20 0 -25 -6 -30 -37 -25 -148 -75 -265 -132
-312 -48 -40 -113 -61 -185 -61 l-58 0 0 355 c0 320 2 356 16 362 9 3 107 1
218 -4 225 -12 272 -24 362 -92 73 -55 125 -155 158 -303 5 -21 12 -28 31 -28
l25 0 0 265 0 265 -740 0 -740 0 0 -24z"/>
<path d="M19480 3896 c0 -21 5 -24 63 -28 78 -7 133 -32 158 -72 18 -30 19
-64 19 -756 0 -670 -1 -728 -18 -760 -24 -49 -89 -80 -164 -80 -55 0 -58 -1
-58 -25 l0 -25 782 2 783 3 32 295 c17 162 32 301 32 308 1 7 -11 12 -26 12
-26 0 -30 -6 -52 -77 -63 -198 -160 -337 -274 -393 -88 -43 -156 -52 -353 -48
-157 3 -175 5 -201 24 -54 40 -54 39 -51 795 3 691 3 698 24 726 36 47 79 66
166 71 74 4 79 6 76 26 l-3 21 -467 3 -468 2 0 -24z"/>
<path d="M23170 3896 c0 -21 7 -25 63 -35 58 -12 66 -17 130 -83 l68 -71 -3
-676 -3 -676 -23 -47 c-30 -60 -74 -88 -163 -102 -62 -9 -69 -13 -69 -33 l0
-23 310 0 310 0 0 24 c0 21 -5 24 -61 29 -71 6 -143 45 -170 92 -10 17 -23 59
-28 95 -12 75 -15 1180 -3 1179 4 0 273 -328 597 -729 456 -564 595 -729 612
-730 l22 0 3 803 3 802 23 47 c31 63 50 74 175 102 20 5 27 12 27 31 l0 25
-290 0 -290 0 0 -25 c0 -21 5 -25 28 -25 53 0 135 -31 168 -64 18 -18 38 -50
45 -71 15 -48 26 -911 12 -902 -6 4 -203 249 -439 546 l-429 541 -312 0 -313
0 0 -24z"/>
<path d="M25090 3897 c0 -23 4 -25 69 -29 76 -6 122 -26 155 -71 21 -28 21
-32 21 -767 l0 -739 -35 -36 c-39 -40 -81 -55 -157 -55 -50 0 -53 -2 -53 -25
l0 -25 453 0 c485 0 575 6 713 45 254 73 416 201 519 410 72 147 89 230 89
430 -1 142 -4 183 -23 250 -24 89 -84 221 -132 291 -78 114 -221 220 -365 273
-160 58 -221 64 -761 68 l-493 5 0 -25z m821 -87 c130 -12 196 -39 269 -107
138 -128 205 -320 217 -623 9 -242 -22 -435 -96 -585 -78 -158 -189 -234 -355
-243 -101 -5 -144 8 -168 51 -10 17 -14 183 -16 755 -2 404 -1 740 2 748 6 16
18 17 147 4z"/>
</g>
</svg>
